<?xml version="1.0" encoding="UTF-8" standalone="no"?>
<!DOCTYPE svg PUBLIC "-//W3C//DTD SVG 1.1//EN"
 "http://www.w3.org/Graphics/SVG/1.1/DTD/svg11.dtd">
<!-- Generated by graphviz version 2.47.3 (20210619.1520)
 -->
<!-- Pages: 1 -->
<svg width="483pt" height="213pt"
 viewBox="0.00 0.00 482.53 212.94" xmlns="http://www.w3.org/2000/svg" xmlns:xlink="http://www.w3.org/1999/xlink">
<g id="graph0" class="graph" transform="scale(1 1) rotate(0) translate(4 208.94)">
<polygon fill="white" stroke="transparent" points="-4,4 -4,-208.94 478.53,-208.94 478.53,4 -4,4"/>
<!-- 0 -->
<g id="node1" class="node">
<title>0</title>
<ellipse fill="lightgrey" stroke="black" cx="236.26" cy="-110.25" rx="16.03" ry="16.03"/>
<text text-anchor="middle" x="236.26" y="-107.15" font-family="Times New Roman,serif" font-size="12.00">0</text>
</g>
<!-- label -->
<g id="node2" class="node">
<title>label</title>
<ellipse fill="lightgrey" stroke="black" cx="170.26" cy="-26.87" rx="26.74" ry="26.74"/>
<text text-anchor="middle" x="170.26" y="-23.77" font-family="Times New Roman,serif" font-size="12.00">label</text>
</g>
<!-- 0&#45;&gt;label -->
<g id="edge1" class="edge">
<title>0&#45;&gt;label</title>
<path fill="none" stroke="black" d="M226.24,-96.89C217.5,-86.11 204.48,-70.06 193.21,-56.16"/>
<polygon fill="black" stroke="black" points="195.83,-53.83 186.81,-48.27 190.39,-58.24 195.83,-53.83"/>
</g>
<!-- 4 -->
<g id="node3" class="node">
<title>4</title>
<ellipse fill="lightgrey" stroke="black" cx="60.26" cy="-110.25" rx="16.03" ry="16.03"/>
<text text-anchor="middle" x="60.26" y="-107.15" font-family="Times New Roman,serif" font-size="12.00">4</text>
</g>
<!-- 4&#45;&gt;label -->
<g id="edge4" class="edge">
<title>4&#45;&gt;label</title>
<path fill="none" stroke="black" d="M72.88,-99.91C89.29,-87.77 118.48,-66.18 140.64,-49.79"/>
<polygon fill="black" stroke="black" points="142.79,-52.55 148.74,-43.79 138.62,-46.92 142.79,-52.55"/>
</g>
<!-- 2 -->
<g id="node4" class="node">
<title>2</title>
<ellipse fill="lightgrey" stroke="black" cx="16.26" cy="-26.87" rx="16.03" ry="16.03"/>
<text text-anchor="middle" x="16.26" y="-23.77" font-family="Times New Roman,serif" font-size="12.00">2</text>
</g>
<!-- 4&#45;&gt;2 -->
<g id="edge2" class="edge">
<title>4&#45;&gt;2</title>
<path fill="none" stroke="black" d="M52.8,-95.44C46.12,-83.09 36.21,-64.76 28.4,-50.31"/>
<polygon fill="black" stroke="black" points="31.45,-48.6 23.62,-41.47 25.29,-51.93 31.45,-48.6"/>
</g>
<!-- 5 -->
<g id="node5" class="node">
<title>5</title>
<ellipse fill="lightgrey" stroke="black" cx="67.26" cy="-26.87" rx="16.03" ry="16.03"/>
<text text-anchor="middle" x="67.26" y="-23.77" font-family="Times New Roman,serif" font-size="12.00">5</text>
</g>
<!-- 4&#45;&gt;5 -->
<g id="edge3" class="edge">
<title>4&#45;&gt;5</title>
<path fill="none" stroke="black" d="M61.58,-93.94C62.57,-82.46 63.94,-66.49 65.09,-53.13"/>
<polygon fill="black" stroke="black" points="68.58,-53.37 65.95,-43.11 61.61,-52.77 68.58,-53.37"/>
</g>
<!-- &#45;2 -->
<g id="node6" class="node">
<title>&#45;2</title>
<ellipse fill="lightgrey" stroke="black" cx="289.26" cy="-185.84" rx="19.18" ry="19.18"/>
<text text-anchor="middle" x="289.26" y="-182.74" font-family="Times New Roman,serif" font-size="12.00">&#45;2</text>
</g>
<!-- &#45;2&#45;&gt;label -->
<g id="edge7" class="edge">
<title>&#45;2&#45;&gt;label</title>
<path fill="none" stroke="black" d="M272.16,-176.77C254.7,-167.76 227.88,-151.65 211.26,-130.75 195.46,-110.88 185.05,-84.12 178.67,-62.88"/>
<polygon fill="black" stroke="black" points="182.04,-61.92 175.94,-53.25 175.3,-63.83 182.04,-61.92"/>
</g>
<!-- &#45;3 -->
<g id="node7" class="node">
<title>&#45;3</title>
<ellipse fill="lightgrey" stroke="black" cx="289.26" cy="-110.25" rx="19.18" ry="19.18"/>
<text text-anchor="middle" x="289.26" y="-107.15" font-family="Times New Roman,serif" font-size="12.00">&#45;3</text>
</g>
<!-- &#45;2&#45;&gt;&#45;3 -->
<g id="edge5" class="edge">
<title>&#45;2&#45;&gt;&#45;3</title>
<path fill="none" stroke="black" d="M289.26,-166.65C289.26,-158.51 289.26,-148.73 289.26,-139.66"/>
<polygon fill="black" stroke="black" points="292.76,-139.48 289.26,-129.48 285.76,-139.48 292.76,-139.48"/>
</g>
<!-- &#45;1 -->
<g id="node8" class="node">
<title>&#45;1</title>
<ellipse fill="lightgrey" stroke="black" cx="345.26" cy="-110.25" rx="19.18" ry="19.18"/>
<text text-anchor="middle" x="345.26" y="-107.15" font-family="Times New Roman,serif" font-size="12.00">&#45;1</text>
</g>
<!-- &#45;2&#45;&gt;&#45;1 -->
<g id="edge6" class="edge">
<title>&#45;2&#45;&gt;&#45;1</title>
<path fill="none" stroke="black" d="M300.6,-169.95C308.41,-159.68 318.96,-145.82 327.84,-134.15"/>
<polygon fill="black" stroke="black" points="330.68,-136.2 333.95,-126.12 325.11,-131.96 330.68,-136.2"/>
</g>
<!-- &#45;1&#45;&gt;label -->
<g id="edge8" class="edge">
<title>&#45;1&#45;&gt;label</title>
<path fill="none" stroke="black" d="M330.23,-97.91C326.14,-95.07 321.62,-92.14 317.26,-89.74 280.44,-69.46 235.58,-51.47 205.18,-40.19"/>
<polygon fill="black" stroke="black" points="206.05,-36.78 195.45,-36.63 203.64,-43.35 206.05,-36.78"/>
</g>
<!-- 3 -->
<g id="node9" class="node">
<title>3</title>
<ellipse fill="lightgrey" stroke="black" cx="60.26" cy="-185.84" rx="16.03" ry="16.03"/>
<text text-anchor="middle" x="60.26" y="-182.74" font-family="Times New Roman,serif" font-size="12.00">3</text>
</g>
<!-- 3&#45;&gt;label -->
<g id="edge9" class="edge">
<title>3&#45;&gt;label</title>
<path fill="none" stroke="black" d="M68.56,-171.74C80.37,-153.24 102.86,-118.49 123.26,-89.74 131.09,-78.72 139.99,-66.84 147.92,-56.47"/>
<polygon fill="black" stroke="black" points="150.72,-58.59 154.04,-48.53 145.17,-54.32 150.72,-58.59"/>
</g>
<!-- 3&#45;&gt;4 -->
<g id="edge11" class="edge">
<title>3&#45;&gt;4</title>
<path fill="none" stroke="black" d="M60.26,-169.24C60.26,-159.81 60.26,-147.56 60.26,-136.75"/>
<polygon fill="black" stroke="black" points="63.76,-136.58 60.26,-126.58 56.76,-136.58 63.76,-136.58"/>
</g>
<!-- 3&#45;&gt;2 -->
<g id="edge10" class="edge">
<title>3&#45;&gt;2</title>
<path fill="none" stroke="black" d="M52.69,-171C47.12,-160.29 39.78,-144.95 35.26,-130.75 27.06,-104.96 21.97,-74.33 19.15,-53.24"/>
<polygon fill="black" stroke="black" points="22.6,-52.64 17.87,-43.15 15.66,-53.51 22.6,-52.64"/>
</g>
<!-- 10 -->
<g id="node10" class="node">
<title>10</title>
<ellipse fill="lightgrey" stroke="black" cx="403.26" cy="-110.25" rx="20.51" ry="20.51"/>
<text text-anchor="middle" x="403.26" y="-107.15" font-family="Times New Roman,serif" font-size="12.00">10</text>
</g>
<!-- 9 -->
<g id="node11" class="node">
<title>9</title>
<ellipse fill="lightgrey" stroke="black" cx="403.26" cy="-26.87" rx="16.03" ry="16.03"/>
<text text-anchor="middle" x="403.26" y="-23.77" font-family="Times New Roman,serif" font-size="12.00">9</text>
</g>
<!-- 10&#45;&gt;9 -->
<g id="edge12" class="edge">
<title>10&#45;&gt;9</title>
<path fill="none" stroke="black" d="M403.26,-89.55C403.26,-78.67 403.26,-65.04 403.26,-53.36"/>
<polygon fill="black" stroke="black" points="406.76,-53.32 403.26,-43.32 399.76,-53.32 406.76,-53.32"/>
</g>
<!-- 1 -->
<g id="node12" class="node">
<title>1</title>
<ellipse fill="lightgrey" stroke="black" cx="148.26" cy="-110.25" rx="16.03" ry="16.03"/>
<text text-anchor="middle" x="148.26" y="-107.15" font-family="Times New Roman,serif" font-size="12.00">1</text>
</g>
<!-- 1&#45;&gt;label -->
<g id="edge13" class="edge">
<title>1&#45;&gt;label</title>
<path fill="none" stroke="black" d="M152.3,-94.32C154.69,-85.47 157.83,-73.85 160.82,-62.81"/>
<polygon fill="black" stroke="black" points="164.26,-63.5 163.49,-52.93 157.5,-61.67 164.26,-63.5"/>
</g>
<!-- 7 -->
<g id="node13" class="node">
<title>7</title>
<ellipse fill="lightgrey" stroke="black" cx="458.26" cy="-110.25" rx="16.03" ry="16.03"/>
<text text-anchor="middle" x="458.26" y="-107.15" font-family="Times New Roman,serif" font-size="12.00">7</text>
</g>
<!-- 6 -->
<g id="node14" class="node">
<title>6</title>
<ellipse fill="lightgrey" stroke="black" cx="458.26" cy="-26.87" rx="16.03" ry="16.03"/>
<text text-anchor="middle" x="458.26" y="-23.77" font-family="Times New Roman,serif" font-size="12.00">6</text>
</g>
<!-- 7&#45;&gt;6 -->
<g id="edge14" class="edge">
<title>7&#45;&gt;6</title>
<path fill="none" stroke="black" d="M458.26,-93.94C458.26,-82.65 458.26,-67.01 458.26,-53.78"/>
<polygon fill="black" stroke="black" points="461.76,-53.38 458.26,-43.38 454.76,-53.38 461.76,-53.38"/>
</g>
<!-- 8 -->
<g id="node15" class="node">
<title>8</title>
<ellipse fill="lightgrey" stroke="black" cx="430.26" cy="-185.84" rx="16.03" ry="16.03"/>
<text text-anchor="middle" x="430.26" y="-182.74" font-family="Times New Roman,serif" font-size="12.00">8</text>
</g>
<!-- 8&#45;&gt;10 -->
<g id="edge16" class="edge">
<title>8&#45;&gt;10</title>
<path fill="none" stroke="black" d="M424.93,-170.3C421.69,-161.48 417.45,-149.92 413.58,-139.36"/>
<polygon fill="black" stroke="black" points="416.76,-137.86 410.03,-129.68 410.18,-140.27 416.76,-137.86"/>
</g>
<!-- 8&#45;&gt;7 -->
<g id="edge15" class="edge">
<title>8&#45;&gt;7</title>
<path fill="none" stroke="black" d="M435.8,-170.3C439.59,-160.32 444.72,-146.85 449.12,-135.29"/>
<polygon fill="black" stroke="black" points="452.46,-136.35 452.74,-125.76 445.92,-133.86 452.46,-136.35"/>
</g>
</g>
</svg>
